<svg width="717" height="606" viewBox="0 0 717 606" fill="none" xmlns="http://www.w3.org/2000/svg">
<g clip-path="url(#clip0_83_127)">
<path d="M716.461 562.478V574.825C716.461 579.078 706.281 582.54 693.771 582.54H46.1512C40.2812 582.54 34.9212 581.778 30.8912 580.524C30.4612 580.394 30.0412 580.255 29.6412 580.109C25.8112 578.728 23.4612 576.868 23.4612 574.825V562.478C220.612 551.407 463.072 555.155 716.461 562.478Z" fill="#A4A4A4" fill-opacity="0.64"/>
<path d="M716.461 576.079V588.426C716.461 592.68 706.281 596.141 693.771 596.141H46.1512C40.2812 596.141 34.9212 595.38 30.8912 594.125C30.4612 593.996 30.0412 593.856 29.6412 593.71C25.8112 592.329 23.4612 590.469 23.4612 588.426V576.079C204.931 567.822 451.878 570.481 716.461 576.079Z" fill="#A4A4A4"/>
<path d="M664.781 555.035C665.758 555.096 666.299 553.881 665.559 553.173L665.485 552.881L665.515 552.81C666.503 550.452 669.855 550.469 670.835 552.83C671.705 554.926 672.813 557.025 673.086 559.241C673.208 560.22 673.153 561.216 672.936 562.176C674.975 557.722 676.048 552.858 676.048 547.967C676.048 546.738 675.981 545.509 675.844 544.284C675.73 543.281 675.575 542.284 675.373 541.297C674.281 535.959 671.918 530.876 668.51 526.63C666.871 525.734 665.505 524.334 664.679 522.656C664.383 522.05 664.151 521.399 664.041 520.736C664.227 520.76 664.744 517.92 664.603 517.746C664.863 517.352 665.328 517.156 665.612 516.771C667.023 514.857 668.968 515.191 669.983 517.792C672.152 518.886 672.173 520.702 670.842 522.448C669.996 523.558 669.879 525.061 669.137 526.25C669.213 526.348 669.292 526.443 669.369 526.541C670.77 528.338 671.982 530.271 673.004 532.3C672.715 530.044 673.142 527.327 673.869 525.575C674.696 523.579 676.247 521.898 677.613 520.172C679.253 518.1 682.617 519.004 682.906 521.632L682.914 521.708C682.711 521.822 682.513 521.944 682.319 522.072C681.211 522.805 681.594 524.521 682.906 524.724L682.936 524.728C682.862 525.459 682.737 526.183 682.554 526.896C684.306 533.671 680.523 536.139 675.122 536.25C675.003 536.311 674.887 536.372 674.767 536.43C675.315 537.971 675.752 539.551 676.076 541.153C676.366 542.569 676.568 543.999 676.681 545.436C676.822 547.249 676.81 549.071 676.657 550.881L676.666 550.816C677.054 548.823 678.136 546.962 679.708 545.671C682.048 543.749 685.355 543.041 687.881 541.495C689.096 540.751 690.654 541.712 690.442 543.122L690.431 543.189C690.055 543.342 689.689 543.519 689.334 543.718C689.131 543.832 688.932 543.954 688.738 544.082C687.631 544.815 688.014 546.531 689.326 546.734L689.355 546.738L689.417 546.748C688.771 548.279 687.873 549.701 686.748 550.926C685.652 556.841 680.947 557.402 675.914 555.68H675.911C675.361 558.077 674.557 560.418 673.523 562.65H664.994C664.964 562.555 664.936 562.457 664.909 562.363C665.697 562.412 666.492 562.366 667.269 562.222C666.636 561.446 666.003 560.663 665.37 559.886C665.355 559.871 665.343 559.856 665.331 559.841C665.01 559.443 664.686 559.049 664.365 558.651C664.344 557.431 664.491 556.215 664.781 555.035Z" fill="#F2F2F2"/>
<path d="M285.781 546.035C286.758 546.096 287.299 544.881 286.559 544.173L286.485 543.881L286.515 543.81C287.503 541.452 290.855 541.469 291.835 543.83C292.705 545.926 293.813 548.025 294.086 550.241C294.208 551.22 294.153 552.216 293.936 553.176C295.975 548.722 297.048 543.858 297.048 538.967C297.048 537.738 296.981 536.509 296.844 535.284C296.73 534.281 296.575 533.284 296.373 532.297C295.281 526.959 292.918 521.876 289.51 517.63C287.871 516.734 286.505 515.334 285.679 513.656C285.383 513.05 285.151 512.399 285.041 511.736C285.227 511.76 285.744 508.92 285.603 508.746C285.863 508.352 286.328 508.156 286.612 507.771C288.023 505.857 289.968 506.191 290.983 508.792C293.152 509.886 293.173 511.702 291.842 513.448C290.996 514.558 290.879 516.061 290.137 517.25C290.213 517.348 290.292 517.443 290.369 517.541C291.77 519.338 292.982 521.271 294.004 523.3C293.715 521.044 294.142 518.327 294.869 516.575C295.696 514.579 297.247 512.898 298.613 511.172C300.253 509.099 303.617 510.004 303.906 512.632L303.914 512.708C303.711 512.822 303.513 512.944 303.319 513.072C302.211 513.805 302.594 515.521 303.906 515.724L303.936 515.728C303.862 516.459 303.737 517.183 303.554 517.896C305.306 524.671 301.523 527.139 296.122 527.25C296.003 527.311 295.887 527.372 295.767 527.43C296.315 528.971 296.752 530.551 297.076 532.153C297.366 533.569 297.568 534.999 297.681 536.436C297.822 538.249 297.81 540.071 297.657 541.881L297.666 541.816C298.054 539.823 299.136 537.961 300.708 536.671C303.048 534.749 306.355 534.041 308.881 532.495C310.096 531.751 311.654 532.712 311.442 534.122L311.431 534.189C311.055 534.342 310.689 534.519 310.334 534.718C310.131 534.832 309.932 534.954 309.738 535.082C308.631 535.815 309.014 537.531 310.326 537.734L310.355 537.738L310.416 537.748C309.771 539.279 308.873 540.701 307.748 541.926C306.652 547.841 301.947 548.402 296.914 546.68H296.911C296.361 549.077 295.557 551.418 294.523 553.65H285.994C285.964 553.555 285.936 553.457 285.909 553.363C286.697 553.411 287.492 553.366 288.269 553.222C287.636 552.445 287.003 551.663 286.37 550.886C286.355 550.871 286.343 550.856 286.331 550.841C286.01 550.443 285.686 550.049 285.365 549.651C285.344 548.431 285.491 547.215 285.781 546.035Z" fill="#F2F2F2"/>
<path d="M575.019 555.956L569.751 555.955L567.244 535.633L575.02 535.633L575.019 555.956Z" fill="#FFB6B6"/>
<path d="M575.205 561.452L559.002 561.451V561.247C559.003 557.764 561.826 554.94 565.309 554.94L568.269 552.695L573.791 554.941H575.205L575.205 561.452Z" fill="#2F2E41"/>
<path d="M643.33 527.065L639.926 531.088L622.792 519.876L627.814 513.939L643.33 527.065Z" fill="#FFB6B6"/>
<path d="M647.646 530.474L637.181 542.843L637.025 542.711C634.366 540.461 634.034 536.482 636.283 533.823L636.48 530.113L641.761 527.348L642.675 526.268L647.646 530.474Z" fill="#2F2E41"/>
<path d="M600.742 406.476L572.496 409.754L561.363 428.826L559.767 435.212L560.489 439.602L558.702 442.662L559.767 448.516L555.51 494.812L567.217 546.963H578.126L574.667 498.537L583.713 457.03L591.695 497.473L628.61 529.621L637.208 517.294L608.724 493.216L606.063 484.702L609.648 477.503L612.449 429.891L600.742 406.476Z" fill="#2F2E41"/>
<path d="M587.295 423.928C587.295 423.928 605.106 429.473 606.982 423.199C608.858 416.924 606.516 409.168 604.741 408.344C602.966 407.519 605.071 402.111 607.041 398.496C609.011 394.88 608.707 392.891 607.576 392.459C606.446 392.026 588.814 348.239 588.814 348.239L582.819 346.98L578.012 341.08L567.809 342.314L563.636 350.035L556.646 353.739L554.093 377.234C554.093 377.234 555.348 387.302 557.904 397.893C558.7 401.189 559.621 404.535 560.67 407.644C563.14 414.968 566.316 420.978 570.217 421.918C581.097 424.539 587.295 423.928 587.295 423.928Z" fill="#966DE8"/>
<path d="M526.527 382.716L522.893 383.385L522.053 383.538L520.705 383.791L492.66 388.952C491.188 389.909 489.258 389.753 487.956 388.57C486.457 387.182 486.366 384.839 487.754 383.339C487.777 383.313 487.802 383.294 487.826 383.268C489.276 381.75 491.679 381.668 493.234 383.076C493.382 383.219 493.521 383.372 493.644 383.535L494.401 383.288L496.775 382.515L498.568 381.932L502.137 380.765L503.52 380.314L508.006 378.853L512.333 377.444L517.575 375.734L521.605 374.419L522.409 375.773L526.527 382.716Z" fill="#FFB6B6"/>
<path d="M533.154 383.85C532.369 383.937 531.851 383.958 531.671 383.918C530.167 383.555 531.831 382.573 528.505 383.993C525.805 385.143 525.578 383.076 525.189 383.958C524.544 385.413 523.635 383.934 522.893 383.385C522.565 383.138 522.274 383.08 522.053 383.538C521.973 383.693 521.907 383.912 521.851 384.209C521.675 385.097 521.24 384.744 520.705 383.791C519.822 382.21 518.669 378.987 518.012 377.028C517.818 376.474 517.671 376.018 517.576 375.734C517.507 375.523 517.472 375.403 517.472 375.403C517.472 375.403 517.681 374.799 518.706 374.273C519.42 373.901 520.539 373.572 522.269 373.513C523.33 373.475 524.163 373.698 524.806 373.784C525.183 373.835 525.495 373.837 525.748 373.719L525.753 373.717C526.034 373.591 526.249 373.322 526.409 372.807C526.698 371.88 527.91 371.992 529.109 372.294C530.237 372.587 531.362 373.042 531.695 372.944C532.175 372.803 544.876 361.578 552.989 354.379C556.696 351.089 562.348 351.349 565.738 354.964L569.187 358.643C569.187 358.643 571.401 360.107 571.803 362.852C571.968 364.008 571.814 365.394 571.027 367.004C570.336 368.411 569.155 369.993 567.282 371.729C559.326 379.108 538.945 383.22 533.154 383.85Z" fill="#966DE8"/>
<path d="M612.419 386.39L613.762 389.832L614.072 390.628L614.574 391.904L624.938 418.47C626.155 419.735 626.366 421.659 625.45 423.162C624.371 424.896 622.087 425.427 620.352 424.348C620.323 424.329 620.298 424.308 620.269 424.29C618.504 423.152 617.97 420.809 619.059 419.016C619.172 418.843 619.296 418.678 619.433 418.527L619.047 417.83L617.84 415.644L616.929 413.993L615.109 410.71L614.405 409.436L612.122 405.307L609.922 401.324L607.253 396.498L605.201 392.789L606.379 391.744L612.419 386.39Z" fill="#FFB6B6"/>
<path d="M612.281 379.667C612.515 380.422 612.634 380.926 612.628 381.111C612.556 382.657 611.278 381.208 613.3 384.205C614.939 386.64 612.952 387.253 613.891 387.469C615.443 387.828 614.162 389 613.762 389.831C613.582 390.2 613.58 390.498 614.072 390.628C614.238 390.677 614.466 390.701 614.769 390.7C615.673 390.705 615.409 391.198 614.574 391.904C613.189 393.069 610.241 394.81 608.442 395.825C607.934 396.12 607.514 396.35 607.253 396.498C607.059 396.605 606.948 396.662 606.948 396.662C606.948 396.662 606.315 396.571 605.605 395.664C605.105 395.033 604.57 393.996 604.186 392.309C603.948 391.273 604.01 390.413 603.973 389.766C603.952 389.386 603.895 389.079 603.731 388.853L603.729 388.848C603.552 388.596 603.247 388.436 602.711 388.376C601.746 388.267 601.627 387.056 601.698 385.821C601.772 384.659 602.006 383.468 601.847 383.159C601.51 382.505 589.918 370.879 589.918 370.879L580.725 349.042C580.725 349.042 581.744 346.591 584.364 345.678C585.468 345.298 586.858 345.188 588.588 345.656C590.1 346.069 591.877 346.931 593.935 348.442C602.683 354.861 610.57 374.099 612.281 379.667Z" fill="#966DE8"/>
<path d="M569.617 339.745C576.393 339.745 581.886 334.252 581.886 327.476C581.886 320.7 576.393 315.207 569.617 315.207C562.841 315.207 557.348 320.7 557.348 327.476C557.348 334.252 562.841 339.745 569.617 339.745Z" fill="#FFB6B6"/>
<path d="M580.019 337.16C580.019 337.16 575.954 338.83 573.932 339.064C574.948 337.497 576.359 334.705 577.373 333.142C577.903 332.319 578.445 331.478 578.686 330.534C578.925 329.582 578.818 328.492 578.171 327.765C577.548 327.059 576.461 326.815 575.599 327.187C574.733 327.557 574.163 328.513 574.238 329.444C573.476 329.155 573.307 328.132 573.448 327.326C573.589 326.52 573.918 325.695 573.689 324.906C573.469 324.141 572.74 323.602 571.964 323.404C571.195 323.205 570.379 323.298 569.591 323.446C567.34 323.861 565.151 324.713 562.856 324.741C562.403 324.75 561.943 324.709 561.482 324.63C561.87 323.376 561.848 321.993 561.354 320.777C560.887 321.918 560.199 322.969 559.346 323.864C558.401 323.326 557.655 322.536 557.325 321.499C556.958 320.351 557.169 319.078 557.67 317.984C557.901 317.482 558.189 317.009 558.518 316.562C558.846 316.582 559.182 316.569 559.508 316.523C560.227 316.433 560.92 316.217 561.553 315.857C560.898 315.686 560.263 315.446 559.661 315.133C559.688 315.1 559.713 315.071 559.74 315.038C560.347 314.352 561.001 313.652 561.863 313.348C562.724 313.045 563.847 313.274 564.267 314.09C566.63 312.062 569.83 311.039 572.934 311.324C575.984 311.606 578.904 313.143 580.863 315.506C580.252 315.893 579.713 316.383 579.293 316.973C580.093 316.826 580.913 316.787 581.724 316.849C582.079 317.611 582.199 318.432 581.821 319.156C582.578 319.859 584.093 321.107 583.129 321.332C584.66 323.852 585.21 326.953 584.643 329.846C584.072 332.744 582.39 335.408 580.019 337.16Z" fill="#2F2E41"/>
<path d="M414.447 555.348L420.981 555.348L424.089 530.147L414.446 530.148L414.447 555.348Z" fill="#A0616A"/>
<path d="M414.217 562.164L434.308 562.163V561.909C434.308 557.59 430.807 554.089 426.488 554.089L422.818 551.305L415.971 554.089L414.217 554.09L414.217 562.164Z" fill="#2F2E41"/>
<path d="M359.506 549.687L365.69 551.796L376.766 528.948L367.64 525.836L359.506 549.687Z" fill="#A0616A"/>
<path d="M357.088 556.064L376.103 562.549L376.185 562.308C377.579 558.221 375.396 553.777 371.308 552.383L368.733 548.563L361.354 548.988L359.694 548.422L357.088 556.064Z" fill="#2F2E41"/>
<path d="M430.715 418.039C430.715 418.039 437.001 437.345 435.84 439.886C434.68 442.427 432.701 440.448 434.68 442.427C436.66 444.407 438.388 442.303 436.534 445.664C434.68 449.026 431.872 476.7 430.636 478.04C429.401 479.38 427.703 479.416 429.212 480.717C430.721 482.019 432.701 479.38 430.721 482.019C428.741 484.658 423.488 545.547 423.488 545.547H413.227C413.227 545.547 410.671 542.601 412.118 540.684C413.565 538.767 411.991 538.028 412.118 536.748C412.245 535.468 411.764 532.708 411.674 531.448C411.585 530.189 409.851 500.186 414.017 482.854L406.42 449.853L397.217 489.739C397.217 489.739 382.45 519.195 378.217 529.951C378.217 529.951 381.63 532.793 380.116 534.44C378.602 536.087 377.283 534.767 378.602 536.087C379.922 537.406 376.623 542.026 376.623 542.026L361.405 541.366L378.056 482.854C378.056 482.854 376.986 476.335 378.056 475.218C379.126 474.101 379.126 478.06 379.126 474.101V468.822C379.126 468.822 379.746 436.354 379.829 434.441C379.912 432.529 387.83 418.672 387.83 418.672L430.715 418.039Z" fill="#2F2E41"/>
<path d="M430.461 351.358V389.427C430.461 389.427 428.542 394.687 428.583 400.857C428.624 407.328 430.047 414.786 430.042 418.047C430.042 418.61 430.002 419.042 429.903 419.33C423.602 437.593 390.262 420.997 387.231 419.443C387.087 419.371 387.01 419.33 387.01 419.33L387.668 398.875L387.555 392.993L386.776 352.646L387.474 352.087L393.59 347.21L394.189 346.733L396.027 349.412L412.406 348.286L418.657 346.557L420.607 347.35L429.398 350.925L430.461 351.358Z" fill="#3F3D56"/>
<path d="M479.718 402.433L470.44 394.682L465.273 399.364L475.374 407.21C475.446 407.594 475.575 407.974 475.766 408.338C476.803 410.318 479.248 411.082 481.228 410.045C483.208 409.008 483.972 406.563 482.935 404.583C482.274 403.32 481.039 402.555 479.718 402.433Z" fill="#A0616A"/>
<path d="M422.184 350.583C420.03 353.59 421.436 358.463 422.7 361.939C424.321 366.407 443.996 385.87 449.023 386.907C452.923 387.712 452.087 387.629 453.114 390.135C454.141 392.64 451.077 391.919 454.844 393.776C458.61 395.633 459.277 394.173 459.457 396.156C459.637 398.139 458.501 398.841 461.187 399.797C463.872 400.753 464.34 401.51 465.187 402.033C466.034 402.556 470.684 407.531 470.684 407.531C470.684 407.531 475.569 401.891 479.445 400.54C479.445 400.54 473.137 397.114 473.191 395.51C473.246 393.906 474.147 392.825 472.309 392.392C470.471 391.959 468.812 393.508 470.002 391.202C471.192 388.895 460.524 379.268 460.524 379.268C456.583 370.359 446.169 360.807 434.551 351.135C431.021 348.196 425.962 347.97 422.184 350.583Z" fill="#3F3D56"/>
<path d="M383.084 427.163L382.563 415.084L375.622 414.419L376.627 427.169C376.392 427.481 376.198 427.832 376.057 428.219C375.293 430.318 376.375 432.641 378.475 433.406C380.575 434.17 382.897 433.088 383.662 430.988C384.15 429.649 383.884 428.221 383.084 427.163Z" fill="#A0616A"/>
<path d="M390.34 351.47L390.145 351.493C386.472 351.926 383.249 354.144 381.531 357.419C379.321 361.627 372.33 390.128 374.041 394.039C375.638 397.687 375.572 396.79 374.412 399.236C373.252 401.683 371.721 398.932 372.886 402.967C374.05 407.002 375.578 406.512 374.234 407.981C372.89 409.449 371.606 409.083 372.708 411.712C373.81 414.34 373.566 415.196 373.75 416.175C373.934 417.153 373.388 423.941 373.388 423.941C373.388 423.941 380.848 423.752 384.457 425.707C384.457 425.707 382.741 418.737 383.963 417.697C385.185 416.656 386.591 416.594 385.673 414.944C384.755 413.294 382.492 413.112 384.999 412.437C387.505 411.763 387.435 397.394 387.435 397.394L390.34 351.47Z" fill="#3F3D56"/>
<path d="M408.225 336.077C407.932 336.144 407.639 336.203 407.346 336.248C406.437 336.397 405.527 336.442 404.64 336.388C401.947 336.248 399.407 335.253 397.353 333.613C395.182 331.884 393.561 329.439 392.881 326.529C391.282 319.661 395.556 312.789 402.424 311.19C409.193 309.609 415.962 313.735 417.691 320.427C417.718 320.531 417.745 320.63 417.768 320.733C419.367 327.606 415.097 334.474 408.225 336.077Z" fill="#FFB6B6"/>
<path d="M396.433 334.569C394.656 333.179 394.484 330.528 392.967 328.857C390.432 326.063 389.241 323.058 390.569 319.748C391.744 316.82 391.494 313.221 394.024 311.336C392.781 310.886 392.489 309.952 393.585 309.935C394.325 309.923 397.081 311.336 395.755 309.576C394.428 307.816 396.939 308.511 396.773 307.79C396.607 307.07 395.542 306.671 395.072 307.242C396.572 305.485 399.846 305.86 400.909 307.909C402.404 305.67 403.99 304.129 406.277 305.55C408.522 306.946 408.493 308.671 410.908 308.257C412.043 308.062 412.151 310.207 412.926 311.059C413.702 311.91 414.836 312.569 415.968 312.356C417.099 312.142 417.965 310.731 417.331 309.769L419.999 315.856L421.074 314.537C422.782 315.65 422.221 318.556 420.501 319.651C418.782 320.747 415.5 318.214 414.566 320.027C413.095 322.885 409.644 321.442 407.274 319.422C404.4 316.973 400.931 324.421 402.315 327.934C400.879 326.523 398.221 327.694 397.477 329.565C396.733 331.435 397.279 333.543 397.83 335.479L396.433 334.569Z" fill="#2F2E41"/>
<path d="M420.767 347.349L420.321 347.917L419.123 349.439L414.689 362.536L393.75 347.21L394.349 346.732L397.538 339.955L413.917 338.829L418.817 346.557L420.767 347.349Z" fill="#E6E6E6"/>
<path d="M630.881 140.174C638.381 126.374 643.251 112.844 644.991 100.364C638.038 99.5507 631.887 100.117 626.517 101.92C635.763 86.5114 641.937 67.5351 633.901 57.7937C628.841 52.4237 622.301 48.4037 614.571 45.7337C617.071 34.1637 617.101 23.3237 614.251 13.7937C601.031 -30.5763 513.531 49.3637 457.691 14.7637C434.281 0.2637 409.081 18.5337 388.671 47.9137C391.471 57.6837 396.641 66.7637 403.901 73.8937C394.651 73.2337 385.551 70.5137 377.451 65.9937C355.611 105.184 342.411 154.244 349.021 176.424C353.311 190.814 363.581 200.484 377.991 205.464C375.491 217.034 429.508 300.089 439.461 300.002C465.921 299.773 474.149 239.67 491.815 316.691L452.461 557.002H509.461V309.171C525.321 284.683 541.704 301.062 579.461 282.002C695.271 223.543 645.9 159.109 630.881 140.174Z" fill="#2F2E41"/>
<path d="M155.266 466.917L156.188 484.717L164.649 487.03C164.649 487.03 161.03 466.19 160.804 465.562C161.323 464.804 161.606 463.876 161.545 462.888C161.4 460.531 159.372 458.739 157.016 458.884C154.66 459.03 152.867 461.058 153.013 463.414C153.107 464.949 154.004 466.24 155.266 466.917Z" fill="#FFB6B6"/>
<path d="M124.821 506.702L124.621 507.122C123.951 507.282 124.061 507.092 124.821 506.702Z" fill="#966DE8"/>
<path d="M161.111 502.912C156.521 501.662 151.801 501.322 147.321 501.512C142.571 501.702 138.101 502.492 134.381 503.412C133.691 501.042 133.041 498.532 132.571 496.162L137.631 492.872L143.201 490.922L154.861 486.842L154.711 480.512L155.941 479.942L162.851 476.752L163.011 476.682L167.981 490.162C169.891 495.612 166.711 501.512 161.111 502.912Z" fill="#966DE8"/>
<path d="M253.772 181.859C251.754 162.782 224.402 163.33 230.504 144.967C218.894 150.117 208.214 157.287 199.226 166.307C223.862 85.6997 128.461 147.002 128.461 147.002C128.461 147.002 102.102 135.645 94.6689 130.496C64.9849 110.289 19.1582 160.502 57.2218 187.675C14.8882 167.691 11.3348 198.669 3.99391 234.687C6.7939 244.457 11.9639 253.537 19.2255 260.668C7.27443 260.011 -4.35112 251.382 1.61391 268.89C12.339 290.431 30.3103 294.34 26.7053 321.095C26.974 344.359 72.8004 350.325 122.663 345.395C94.206 426.445 78.7395 501.673 92.3693 563.862H141.167C124.307 488.884 120.614 415.39 135.123 343.948C190.474 336.576 246.546 316.626 247.844 292.647C254.504 275.247 252.204 256.007 242.924 237.857C254.084 217.327 258.444 197.547 253.772 181.859Z" fill="#2F2E41"/>
<path d="M136.135 512.745L137.834 520.043C137.834 520.043 137.851 526.774 139.043 528.014C140.226 529.25 166.253 526.77 166.253 526.77C166.253 526.77 163.493 515.924 163.53 507.718L136.135 512.745Z" fill="#FFB6B6"/>
<path d="M236.518 579.353L240.998 576.123L230.565 556.845L223.953 561.612L236.518 579.353Z" fill="#FFB6B6"/>
<path d="M253.791 570.032C253.711 569.922 253.631 569.822 253.541 569.722C253.281 569.452 252.961 569.242 252.621 569.122L252.601 569.112C252.211 568.962 251.791 568.922 251.371 568.982L249.521 569.272L242.361 570.382L240.851 570.622L238.131 567.762L237.081 568.882L233.461 572.762L232.541 573.742L231.831 574.502L240.581 585.422L243.581 582.572L241.431 579.232L245.491 580.762L247.781 578.582L249.311 577.142L253.451 573.212C253.861 572.822 254.101 572.332 254.191 571.812C254.291 571.202 254.161 570.562 253.791 570.032Z" fill="#2F2E41"/>
<path d="M233.841 561.184L225.737 564.813C217.341 555.934 208.893 544.527 203.6 525.875C191.508 541.53 180.856 550.393 166.395 558.165C161.512 560.811 143.847 561.76 141.099 556.808C140.97 556.577 140.851 556.341 140.74 556.1C138.214 550.534 140.448 536.044 139.019 528.683C144.24 519.1 156.979 526.841 165.693 523.067L175.443 527.303L193.526 505.803C197.163 501.479 203.675 501.006 208.071 504.745C208.303 504.942 208.527 505.15 208.742 505.366C212.387 511.55 215.87 517.629 219.048 523.51C220.074 525.408 223.303 527.959 222.026 529.139C220.748 530.32 224.007 533.028 224.931 534.929C230.618 546.633 232.996 552.62 233.841 561.184Z" fill="#2F2E41"/>
<path d="M132.354 466.535L143.087 465.902C144.014 465.847 144.875 466.387 145.229 467.246L148.263 474.599L160.869 485.018C160.869 485.018 165.86 491.369 165.871 499.572C165.883 507.775 165.693 523.067 165.693 523.067C165.693 523.067 160.358 516.507 155.862 519.234C155.097 519.698 154.828 520.647 154.027 521.127C153.627 521.366 152.704 521.133 152.3 521.373C146.105 525.051 139.894 527.84 139.04 528.013C135.832 528.665 134.827 526.188 136.993 522.739C137.7 521.613 136.417 520.456 136.417 520.456C134.787 519.563 134.177 518.297 135.311 516.394L126.592 484.358C125.545 480.51 126.184 476.359 128.493 473.108C129.179 472.141 129.899 471.422 130.567 471.304C132.067 470.984 131.269 467.621 132.354 466.535Z" fill="#966DE8"/>
<path d="M261.207 581.872L263.246 576.744L243.997 566.267L240.989 573.835L261.207 581.872Z" fill="#FFB6B6"/>
<path d="M254.604 570.662L252.189 579.874C235.829 575.619 218.971 565.621 201.877 552.91C183.012 558.746 165.117 562.244 148.846 560.271C143.34 559.622 139.19 554.469 139.791 548.838C139.819 548.575 139.857 548.313 139.905 548.053C141.04 542.047 150.513 536.775 153.575 529.934L173.712 534.728L175.208 538.598L179.743 537.4L183.571 536.388L187.954 535.23L202.322 531.433C207.775 529.992 213.364 533.355 214.805 538.943C214.882 539.238 214.945 539.537 214.996 539.837L234.895 555.324C234.895 555.324 236.671 559.475 238.036 557.767C239.4 556.06 241.956 560.819 241.956 560.819L254.604 570.662Z" fill="#2F2E41"/>
<path d="M276.001 568.812C275.251 568.512 274.391 568.602 273.721 569.052L264.861 574.962L261.191 573.502L260.601 575.302L258.751 580.892L258.301 582.262L270.831 588.502L272.361 584.652L269.001 582.522L273.331 582.212L277.381 572.012C277.881 570.752 277.261 569.312 276.001 568.812Z" fill="#2F2E41"/>
<path d="M120.718 445.558C120.44 446.811 120.135 448.117 119.31 449.101C118.484 450.084 116.965 450.613 115.882 449.924C114.557 449.081 114.663 447.148 114.927 445.6L115.763 440.693C115.923 439.757 116.088 438.805 116.52 437.959C116.953 437.114 117.702 436.377 118.635 436.202C119.623 436.016 120.654 436.502 121.312 437.26C121.971 438.019 122.302 439.012 122.464 440.004C122.893 442.633 122.188 445.429 120.563 447.54L120.718 445.558Z" fill="#2F2E41"/>
<path d="M116.772 438.522C114.986 436.342 111.262 436.669 109.277 438.669C107.293 440.67 106.8 443.754 107.153 446.55C107.504 449.344 108.976 460.816 109.44 463.018C110.021 465.773 105.691 467.784 102.922 467.266C103.141 469.196 104.445 470.917 106.148 471.852C107.851 472.785 109.9 472.977 111.806 472.608C112.577 472.458 113.334 472.216 114.049 471.884C113.726 471.051 113.526 470.169 113.468 469.275C113.837 470.066 114.353 470.785 114.977 471.393C115.991 470.78 116.884 469.981 117.568 469.015C118.91 467.123 119.384 464.596 118.636 462.399C117.765 459.833 115.472 458.062 113.846 455.894C112.219 453.726 111.387 450.34 113.383 448.507C114.903 447.11 114.812 447.419 116.85 447.743L116.772 438.522Z" fill="#2F2E41"/>
<path d="M143.617 447.68C143.617 454.421 138.152 459.886 131.411 459.886C124.669 459.886 118.265 452.074 118.265 445.332C118.265 438.59 124.669 435.473 131.411 435.473C138.152 435.473 143.617 440.938 143.617 447.68Z" fill="#2F2E41"/>
<path d="M135.091 462.544C141.523 462.544 146.737 457.33 146.737 450.899C146.737 444.467 141.523 439.253 135.091 439.253C128.659 439.253 123.445 444.467 123.445 450.899C123.445 457.33 128.659 462.544 135.091 462.544Z" fill="#FFB6B6"/>
<path d="M149.721 449.088C146.273 450.029 142.792 451.016 141.448 449.088C141.185 447.811 140.692 446.586 139.988 445.492C139.857 446.722 139.566 447.933 139.129 449.088C137.615 449.36 135.509 449.36 135.509 449.36C135.016 450.21 132.761 451.616 132.681 452.635C132.507 452.522 132.324 452.433 132.137 452.349C131.902 452.25 131.625 452.166 131.395 452.283C131.221 452.372 131.122 452.565 131.09 452.757C131.057 452.95 131.085 453.147 131.118 453.344C131.216 454.006 131.324 454.696 131.705 455.25C131.972 455.645 132.423 455.954 132.883 456.006C133.371 458.753 134.451 462.466 134.451 462.466C122.713 462.936 119.204 454.271 119.204 446.74L120.612 443.924H125.307V437.82H138.453C144.674 437.82 149.721 442.867 149.721 449.088Z" fill="black"/>
<path d="M171.858 539.306C169.467 539.148 167.657 537.083 167.814 534.693C167.83 534.452 167.87 534.219 167.923 533.992L140.103 513.11L147.381 509.88L173.436 530.841C175.305 531.424 176.605 533.222 176.471 535.262C176.314 537.652 174.248 539.463 171.858 539.306Z" fill="#FFB6B6"/>
<path d="M166.051 523.492L164.821 523.912L157.821 526.302C157.821 526.302 157.671 526.232 157.401 526.102C154.611 524.732 138.881 516.922 137.941 514.192C137.481 512.852 135.851 508.422 134.381 503.412C133.691 501.042 133.041 498.532 132.571 496.162C131.811 492.362 131.531 488.902 132.321 486.902C134.641 481.032 139.941 482.542 139.941 482.542L143.201 490.922L147.321 501.512L150.651 510.072C155.031 511.242 160.391 516.742 166.051 523.492Z" fill="#966DE8"/>
<path d="M158.311 457.142C158.181 457.142 158.051 457.162 157.931 457.182C157.761 456.992 157.541 456.852 157.271 456.782C157.151 456.742 157.011 456.732 156.871 456.732L148.021 456.962C147.951 456.962 147.871 456.972 147.811 456.982C147.501 457.042 147.231 457.202 147.041 457.422C146.971 457.492 146.911 457.572 146.861 457.662C146.671 457.982 146.621 458.382 146.751 458.782C146.243 462.798 146.433 466.641 148.291 470.072C148.481 470.642 149.031 471.032 149.631 471.022L155.381 470.872C155.411 470.872 155.441 470.872 155.471 470.862C156.041 470.812 156.531 470.422 156.681 469.862C158.09 466.909 158.387 464.005 157.491 461.152C157.771 461.282 158.091 461.352 158.411 461.342C159.251 461.322 159.961 460.812 160.271 460.102C160.401 459.822 160.471 459.512 160.461 459.192C160.431 458.032 159.461 457.112 158.311 457.142ZM158.401 460.742C158.131 460.752 157.881 460.682 157.661 460.562L158.111 458.952L158.241 458.482C158.311 458.232 158.301 457.982 158.241 457.752C158.271 457.752 158.301 457.742 158.331 457.742C159.151 457.722 159.841 458.382 159.861 459.202C159.861 459.372 159.841 459.542 159.791 459.692C159.601 460.292 159.061 460.722 158.401 460.742Z" fill="#3F3D56"/>
<path d="M147.807 456.985C147.995 458.063 150.115 458.821 152.664 458.689C155.008 458.581 156.924 457.758 157.275 456.782C157.153 456.743 157.015 456.729 156.875 456.729L148.025 456.958C147.949 456.963 147.873 456.968 147.807 456.985Z" fill="#966DE8"/>
</g>
<defs>
<clipPath id="clip0_83_127">
<rect width="716.461" height="606.002" fill="white"/>
</clipPath>
</defs>
</svg>
