<svg width="600" height="598" viewBox="0 0 600 598" fill="none" xmlns="http://www.w3.org/2000/svg">
<g clip-path="url(#clip0_27_76)">
<path d="M395.763 158.199H297.284C295.128 158.205 292.999 157.72 291.058 156.78C289.118 155.839 287.418 154.469 286.088 152.773C284.733 151.061 283.786 149.062 283.32 146.928C282.855 144.795 282.882 142.584 283.4 140.463C292.476 102.446 292.476 62.8263 283.399 24.8095C282.881 22.6884 282.855 20.4772 283.32 18.3441C283.786 16.211 284.733 14.2123 286.087 12.5C287.418 10.8037 289.118 9.43321 291.058 8.49295C292.998 7.5527 295.128 7.06741 297.284 7.07404H395.763C399.164 7.08381 402.45 8.30019 405.037 10.5065C407.624 12.7129 409.344 15.7659 409.891 19.1218C416.372 61.2169 416.372 104.056 409.891 146.151C409.344 149.507 407.624 152.56 405.037 154.766C402.45 156.973 399.164 158.189 395.763 158.199Z" fill="#E6E6E6"/>
<path d="M297.283 14.4839C296.248 14.4804 295.226 14.7132 294.294 15.1644C293.362 15.6156 292.545 16.2734 291.906 17.0878C291.247 17.9222 290.788 18.8957 290.562 19.9344C290.337 20.9731 290.351 22.0495 290.604 23.0818C299.952 62.2346 299.953 103.038 290.605 142.191C290.352 143.223 290.337 144.299 290.563 145.338C290.788 146.376 291.247 147.349 291.905 148.184C292.545 148.998 293.362 149.657 294.294 150.108C295.226 150.559 296.248 150.792 297.283 150.789H395.763C397.396 150.789 398.976 150.21 400.222 149.155C401.468 148.099 402.299 146.636 402.567 145.025C408.933 103.676 408.933 61.5965 402.567 20.2476C402.299 18.6368 401.468 17.1734 400.222 16.1179C398.976 15.0624 397.396 14.4834 395.763 14.4839L297.283 14.4839Z" fill="white"/>
<path d="M374.273 50.1143H322.595C320.63 50.1122 318.747 49.3308 317.358 47.9417C315.969 46.5526 315.187 44.6692 315.185 42.7047V39.8091C315.187 37.8446 315.969 35.9611 317.358 34.572C318.747 33.1829 320.63 32.4016 322.595 32.3994H374.273C376.238 32.4016 378.121 33.1829 379.51 34.572C380.899 35.9611 381.68 37.8446 381.683 39.8091V42.7047C381.68 44.6692 380.899 46.5527 379.51 47.9418C378.121 49.3309 376.237 50.1122 374.273 50.1143Z" fill="#E6E6E6"/>
<path d="M374.273 86.7019H322.595C320.63 86.6998 318.747 85.9184 317.358 84.5293C315.969 83.1402 315.187 81.2568 315.185 79.2923V76.3967C315.187 74.4322 315.969 72.5488 317.358 71.1596C318.747 69.7705 320.63 68.9892 322.595 68.9871H374.273C376.238 68.9892 378.121 69.7705 379.51 71.1596C380.899 72.5488 381.68 74.4322 381.683 76.3967V79.2923C381.68 81.2568 380.899 83.1402 379.51 84.5293C378.121 85.9184 376.238 86.6998 374.273 86.7019Z" fill="#E6E6E6"/>
<path d="M374.273 123.289H322.595C320.63 123.287 318.747 122.506 317.358 121.117C315.969 119.728 315.187 117.844 315.185 115.88V112.984C315.187 111.02 315.969 109.136 317.358 107.747C318.747 106.358 320.63 105.577 322.595 105.575H374.273C376.238 105.577 378.121 106.358 379.51 107.747C380.899 109.136 381.68 111.02 381.683 112.984V115.88C381.681 117.844 380.899 119.728 379.51 121.117C378.121 122.506 376.238 123.287 374.273 123.289Z" fill="#E6E6E6"/>
<path d="M581.012 252.058H482.532C480.376 252.065 478.247 251.579 476.307 250.639C474.367 249.699 472.667 248.328 471.336 246.632C469.981 244.92 469.035 242.921 468.569 240.788C468.103 238.655 468.13 236.443 468.648 234.322C477.724 196.305 477.724 156.686 468.648 118.669C468.13 116.548 468.103 114.336 468.569 112.203C469.035 110.07 469.981 108.072 471.336 106.359C472.666 104.663 474.367 103.292 476.307 102.352C478.247 101.412 480.376 100.927 482.532 100.933H581.012C584.412 100.943 587.698 102.159 590.286 104.366C592.873 106.572 594.593 109.625 595.139 112.981C601.62 155.076 601.62 197.915 595.139 240.01C594.593 243.366 592.873 246.419 590.286 248.626C587.698 250.832 584.412 252.048 581.012 252.058Z" fill="#E6E6E6"/>
<path d="M482.532 108.343C481.497 108.34 480.474 108.573 479.542 109.024C478.61 109.475 477.794 110.133 477.154 110.947C476.496 111.782 476.037 112.755 475.811 113.794C475.586 114.832 475.6 115.909 475.853 116.941C485.201 156.094 485.201 196.897 475.854 236.05C475.6 237.082 475.586 238.158 475.811 239.197C476.036 240.235 476.496 241.209 477.154 242.043C477.793 242.858 478.61 243.516 479.542 243.968C480.474 244.419 481.497 244.652 482.532 244.648H581.012C582.645 244.649 584.225 244.07 585.471 243.014C586.717 241.959 587.548 240.495 587.815 238.884C594.181 197.536 594.181 155.456 587.815 114.107C587.548 112.496 586.717 111.033 585.471 109.977C584.225 108.922 582.645 108.343 581.012 108.343L482.532 108.343Z" fill="white"/>
<path d="M384.648 358.885H286.169C283.919 358.891 281.698 358.385 279.674 357.404C277.65 356.423 275.876 354.993 274.488 353.223C273.075 351.438 272.088 349.354 271.602 347.129C271.116 344.905 271.144 342.599 271.684 340.387C280.738 302.465 280.738 262.944 271.684 225.022C271.144 222.81 271.116 220.504 271.602 218.28C272.088 216.056 273.075 213.972 274.487 212.186C275.876 210.416 277.65 208.987 279.674 208.006C281.698 207.025 283.919 206.518 286.169 206.525H384.648C388.196 206.536 391.624 207.805 394.323 210.107C397.022 212.409 398.816 215.595 399.386 219.096C405.877 261.254 405.877 304.156 399.386 346.313C398.816 349.815 397.022 353 394.323 355.302C391.624 357.605 388.196 358.874 384.648 358.885Z" fill="#F2F2F2"/>
<path d="M559.522 162.498H507.843C505.879 162.496 503.995 161.715 502.606 160.326C501.217 158.937 500.436 157.053 500.434 155.089V152.193C500.436 150.229 501.217 148.345 502.606 146.956C503.995 145.567 505.879 144.786 507.843 144.784H559.522C561.486 144.786 563.369 145.567 564.759 146.956C566.148 148.345 566.929 150.229 566.931 152.193V155.089C566.929 157.053 566.148 158.937 564.759 160.326C563.369 161.715 561.486 162.496 559.522 162.498Z" fill="#E6E6E6"/>
<path d="M559.522 199.086H507.843C505.879 199.084 503.995 198.302 502.606 196.913C501.217 195.524 500.436 193.641 500.434 191.676V188.781C500.436 186.816 501.217 184.933 502.606 183.544C503.995 182.155 505.879 181.373 507.843 181.371H559.522C561.486 181.373 563.369 182.155 564.759 183.544C566.148 184.933 566.929 186.816 566.931 188.781V191.676C566.929 193.641 566.148 195.524 564.759 196.913C563.369 198.302 561.486 199.084 559.522 199.086Z" fill="#E6E6E6"/>
<path d="M335.684 310.6C351.372 310.6 364.089 297.883 364.089 282.195C364.089 266.508 351.372 253.791 335.684 253.791C319.996 253.791 307.279 266.508 307.279 282.195C307.279 297.883 319.996 310.6 335.684 310.6Z" fill="white"/>
<path d="M349.269 278.49H339.389V268.61C339.389 267.628 338.999 266.685 338.304 265.991C337.609 265.296 336.667 264.905 335.684 264.905C334.701 264.905 333.759 265.296 333.064 265.991C332.369 266.685 331.979 267.628 331.979 268.61V278.49H322.099C321.117 278.49 320.174 278.881 319.479 279.575C318.784 280.27 318.394 281.213 318.394 282.195C318.394 283.178 318.784 284.12 319.479 284.815C320.174 285.51 321.117 285.9 322.099 285.9H331.979V295.78C331.979 296.763 332.369 297.705 333.064 298.4C333.759 299.095 334.701 299.485 335.684 299.485C336.667 299.485 337.609 299.095 338.304 298.4C338.999 297.705 339.389 296.763 339.389 295.78V285.9H349.269C350.252 285.9 351.194 285.51 351.889 284.815C352.584 284.12 352.974 283.178 352.974 282.195C352.974 281.213 352.584 280.27 351.889 279.575C351.194 278.881 350.252 278.49 349.269 278.49Z" fill="#E6E6E6"/>
<path d="M371.499 20.9948H319.629C318.156 20.9932 316.743 20.4071 315.701 19.3653C314.659 18.3234 314.073 16.9108 314.072 15.4374V5.55746C314.073 4.08404 314.659 2.67144 315.701 1.62957C316.743 0.587709 318.156 0.00166052 319.629 0H371.499C372.972 0.00166052 374.385 0.587709 375.427 1.62957C376.468 2.67144 377.055 4.08404 377.056 5.55746V15.4374C377.055 16.9108 376.468 18.3234 375.427 19.3653C374.385 20.4071 372.972 20.9932 371.499 20.9948Z" fill="#CCCCCC"/>
<path d="M559.217 116.089H507.348C505.874 116.087 504.462 115.501 503.42 114.459C502.378 113.418 501.792 112.005 501.79 110.532V100.652C501.792 99.1783 502.378 97.7657 503.42 96.7238C504.462 95.682 505.874 95.0959 507.348 95.0942H559.217C560.691 95.0959 562.103 95.682 563.145 96.7238C564.187 97.7657 564.773 99.1783 564.775 100.652V110.532C564.773 112.005 564.187 113.418 563.145 114.459C562.103 115.501 560.691 116.087 559.217 116.089Z" fill="#CCCCCC"/>
<path d="M109.415 581.756H124.556L129.29 523.355H109.413L109.415 581.756Z" fill="#FFB8B8"/>
<path d="M105.554 576.813L135.371 576.812H135.372C137.868 576.811 140.339 577.303 142.644 578.258C144.95 579.213 147.044 580.612 148.809 582.377C150.573 584.141 151.973 586.236 152.928 588.542C153.883 590.847 154.374 593.318 154.374 595.813V596.431L105.555 596.433L105.554 576.813Z" fill="#2F2E41"/>
<path d="M27.9058 581.756H43.0468L50.2505 523.355H27.9034L27.9058 581.756Z" fill="#FFB8B8"/>
<path d="M24.0443 576.813L53.8616 576.812H53.8629C56.3583 576.811 58.8292 577.303 61.1347 578.258C63.4402 579.213 65.535 580.612 67.2995 582.377C69.064 584.141 70.4637 586.236 71.4186 588.542C72.3736 590.847 72.8651 593.318 72.865 595.813V596.431L24.0452 596.433L24.0443 576.813Z" fill="#2F2E41"/>
<path d="M30.5922 563.307C29.0478 563.307 27.5599 562.726 26.4241 561.679C25.8145 561.123 25.3235 560.449 24.9806 559.698C24.6377 558.948 24.45 558.136 24.4287 557.311L18.3567 339.689L104.573 361.242L131.174 441.044C134.604 451.31 136.089 462.126 135.553 472.937L132.249 550.293C132.174 551.877 131.491 553.372 130.343 554.467C129.194 555.561 127.668 556.171 126.081 556.17H111.621C110.128 556.164 108.688 555.62 107.564 554.637C106.44 553.655 105.708 552.301 105.502 550.823L95.1663 465.433C94.2631 458.772 91.9329 452.384 88.3346 446.706L67.995 414.502C67.859 414.287 67.6598 414.119 67.4248 414.022C67.1898 413.924 66.9304 413.901 66.682 413.957C66.4336 414.012 66.2084 414.143 66.0372 414.331C65.866 414.52 65.7572 414.756 65.7255 415.009L49.7638 557.142C49.5924 558.583 48.9179 559.918 47.8591 560.911C46.8003 561.905 45.425 562.492 43.9754 562.571L30.9438 563.296C30.8265 563.303 30.7095 563.307 30.5922 563.307Z" fill="#2F2E41"/>
<path d="M90.2255 198.793C106.978 198.793 120.558 185.212 120.558 168.46C120.558 151.708 106.978 138.128 90.2255 138.128C73.4733 138.128 59.8929 151.708 59.8929 168.46C59.8929 185.212 73.4733 198.793 90.2255 198.793Z" fill="#FFB8B8"/>
<path d="M104.16 370.092C103.638 370.092 103.118 370.026 102.612 369.896L17.0708 347.963C15.5414 347.571 14.2202 346.608 13.3788 345.273C12.5374 343.937 12.2398 342.329 12.5471 340.781L32.1923 234.953C33.4163 228.836 36.1066 223.107 40.0323 218.259C43.958 213.41 49.0018 209.587 54.7306 207.117C60.3126 204.647 66.4169 203.588 72.5048 204.035C78.5927 204.482 84.477 206.421 89.6383 209.68C90.8359 210.427 92.0423 211.242 93.223 212.102C97.9763 215.608 101.853 220.168 104.548 225.424C107.243 230.68 108.684 236.489 108.758 242.395L110.32 363.83C110.33 364.647 110.179 365.457 109.874 366.215C109.57 366.973 109.118 367.663 108.545 368.245C107.973 368.828 107.29 369.291 106.537 369.608C105.785 369.925 104.977 370.09 104.16 370.092Z" fill="#6C63FF"/>
<path d="M25.8722 371.337C24.8518 369.835 24.173 368.128 23.8837 366.336C23.5945 364.543 23.7017 362.71 24.1979 360.963C24.6941 359.217 25.5671 357.6 26.7556 356.228C27.944 354.855 29.419 353.76 31.0765 353.019L27.2717 309.051L47.4342 319.979L47.9561 360.056C49.0161 362.923 48.9876 366.08 47.8759 368.927C46.7643 371.774 44.6468 374.115 41.9247 375.506C39.2025 376.896 36.0649 377.24 33.1064 376.471C30.1478 375.703 27.5738 373.876 25.8722 371.337Z" fill="#FFB8B8"/>
<path d="M33.0755 347.204C32.5066 347.204 31.94 347.132 31.3888 346.991C30.2034 346.688 29.1217 346.071 28.2582 345.205C27.3947 344.338 26.7816 343.254 26.4835 342.068L16.575 302.691C13.1122 288.939 14.7629 274.397 21.22 261.77L41.9788 221.162C43.291 216.3 46.4617 212.148 50.8069 209.602C55.1521 207.057 60.3238 206.321 65.2066 207.554C67.6403 208.168 69.9278 209.26 71.9365 210.765C73.9451 212.271 75.635 214.16 76.908 216.323C78.2072 218.517 79.0569 220.948 79.4076 223.474C79.7583 226 79.603 228.57 78.9507 231.035L49.4005 297.115L49.7515 336.678C49.7606 338.074 49.3409 339.439 48.5492 340.589C47.7575 341.738 46.6319 342.617 45.3247 343.106L35.4357 346.778C34.6806 347.06 33.8813 347.204 33.0755 347.204Z" fill="#6C63FF"/>
<path d="M174.526 355.164C172.722 354.958 170.986 354.359 169.438 353.409C167.891 352.459 166.571 351.181 165.571 349.666C164.571 348.151 163.916 346.435 163.65 344.639C163.385 342.842 163.518 341.01 164.037 339.271L128.231 313.473L149.666 305.319L180.382 331.068C183.247 332.134 185.62 334.215 187.053 336.915C188.486 339.615 188.879 342.747 188.157 345.717C187.435 348.687 185.649 351.29 183.137 353.031C180.624 354.772 177.561 355.531 174.526 355.164Z" fill="#FFB8B8"/>
<path d="M155.782 336.326C154.726 336.325 153.685 336.079 152.74 335.608L116.433 317.432C103.751 311.084 93.8058 300.347 88.4468 287.217L71.2097 244.993C68.381 240.826 67.303 235.715 68.2081 230.76C69.1131 225.806 71.9289 221.406 76.0481 218.509C78.1062 217.062 80.4318 216.039 82.8893 215.499C85.3468 214.96 87.8871 214.915 90.362 215.368C92.8661 215.818 95.2559 216.761 97.3929 218.141C99.53 219.522 101.372 221.313 102.812 223.41L133.619 288.914L163.834 314.456C164.898 315.36 165.659 316.568 166.013 317.918C166.368 319.268 166.3 320.695 165.818 322.005L162.15 331.895C161.672 333.192 160.806 334.311 159.672 335.101C158.531 335.898 157.173 336.326 155.782 336.326Z" fill="#6C63FF"/>
<path d="M83.856 199.257C85.4677 199.962 88.768 187.121 87.2897 184.552C85.0911 180.732 85.221 180.76 83.7615 178.233C82.302 175.706 81.9754 172.246 83.8655 170.023C85.7555 167.799 90.1293 168.094 90.9919 170.882C90.437 165.587 95.6748 161.33 100.863 160.134C106.052 158.938 111.524 159.68 116.741 158.616C122.795 157.381 129.095 152.305 126.679 145.648C126.265 144.539 125.644 143.519 124.85 142.642C122.059 139.504 118.155 138.164 114.338 136.868C106.397 134.173 98.2386 131.444 89.8578 131.741C82.9525 132.102 76.3022 134.468 70.7207 138.55C65.1393 142.632 60.8687 148.252 58.4318 154.723C57.8542 156.342 57.4068 158.005 57.0938 159.695C54.2172 175.162 63.1991 190.419 77.7875 196.309L83.856 199.257Z" fill="#2F2E41"/>
<path opacity="0.2" d="M48.0411 337.576L48.729 296.909L70.271 253.597L52.9811 298.056L48.0411 337.576Z" fill="black"/>
<path d="M243.388 439.635L152.446 401.85C150.452 401.029 148.672 399.764 147.242 398.151C145.811 396.538 144.767 394.62 144.189 392.543C143.594 390.442 143.487 388.233 143.876 386.085C144.264 383.936 145.137 381.904 146.43 380.144C169.398 348.519 184.599 311.932 190.803 273.342C191.139 271.185 191.963 269.133 193.211 267.341C194.46 265.55 196.101 264.068 198.009 263.006C199.888 261.95 201.984 261.337 204.137 261.213C206.289 261.089 208.441 261.458 210.43 262.291L301.373 300.077C304.509 301.39 307.077 303.774 308.619 306.804C310.162 309.835 310.579 313.314 309.796 316.623C299.63 357.983 283.193 397.543 261.057 433.929C259.265 436.819 256.505 438.978 253.269 440.023C250.034 441.068 246.532 440.93 243.388 439.635Z" fill="#E6E6E6"/>
<path d="M207.587 269.134C206.632 268.734 205.598 268.556 204.565 268.615C203.531 268.675 202.525 268.969 201.622 269.475C200.693 269.993 199.896 270.716 199.289 271.589C198.682 272.461 198.282 273.461 198.12 274.511C191.73 314.254 176.075 351.935 152.42 384.505C151.79 385.36 151.364 386.349 151.174 387.394C150.983 388.44 151.034 389.515 151.322 390.538C151.6 391.535 152.102 392.457 152.789 393.231C153.476 394.006 154.331 394.613 155.289 395.007L246.232 432.792C247.739 433.419 249.421 433.491 250.976 432.994C252.532 432.497 253.86 431.465 254.726 430.08C276.469 394.338 292.615 355.479 302.601 314.852C302.971 313.262 302.766 311.592 302.02 310.139C301.275 308.686 300.038 307.545 298.53 306.919L207.587 269.134Z" fill="white"/>
<path d="M256.01 353.246L208.287 333.418C206.474 332.662 205.034 331.218 204.284 329.402C203.535 327.587 203.536 325.548 204.287 323.733L205.398 321.059C206.154 319.245 207.598 317.806 209.414 317.056C211.23 316.306 213.269 316.307 215.084 317.059L262.807 336.887C264.62 337.643 266.06 339.087 266.81 340.903C267.559 342.719 267.558 344.758 266.806 346.573L265.695 349.247C264.94 351.06 263.496 352.499 261.68 353.249C259.864 353.999 257.825 353.998 256.01 353.246Z" fill="#6C63FF"/>
<path d="M241.972 387.033L194.249 367.205C192.436 366.45 190.996 365.005 190.246 363.19C189.496 361.374 189.498 359.335 190.249 357.52L191.36 354.846C192.116 353.033 193.56 351.593 195.376 350.843C197.192 350.093 199.231 350.094 201.046 350.846L248.769 370.674C250.582 371.43 252.022 372.874 252.771 374.69C253.521 376.506 253.52 378.545 252.768 380.36L251.657 383.034C250.902 384.847 249.458 386.287 247.642 387.037C245.826 387.786 243.787 387.785 241.972 387.033Z" fill="#6C63FF"/>
<path d="M275.133 305.761C274.418 305.761 273.711 305.622 273.049 305.353L224.961 285.911C223.596 285.357 222.506 284.285 221.93 282.928C221.355 281.572 221.341 280.043 221.892 278.676L225.595 269.516C226.148 268.15 227.22 267.059 228.577 266.483C229.934 265.908 231.464 265.895 232.83 266.447L280.918 285.889C282.284 286.443 283.374 287.516 283.949 288.872C284.524 290.229 284.538 291.758 283.988 293.124L280.284 302.284C279.868 303.31 279.156 304.189 278.238 304.808C277.321 305.427 276.24 305.759 275.133 305.761Z" fill="#CCCCCC"/>
<path d="M174.134 597.118H1.23498C0.907435 597.118 0.593329 596.988 0.361723 596.756C0.130117 596.525 -1.52588e-05 596.21 -1.52588e-05 595.883C-1.52588e-05 595.555 0.130117 595.241 0.361723 595.01C0.593329 594.778 0.907435 594.648 1.23498 594.648H174.134C174.461 594.648 174.775 594.778 175.007 595.01C175.239 595.241 175.369 595.555 175.369 595.883C175.369 596.21 175.239 596.525 175.007 596.756C174.775 596.988 174.461 597.118 174.134 597.118Z" fill="#CCCCCC"/>
</g>
<defs>
<clipPath id="clip0_27_76">
<rect width="600" height="597.118" fill="white"/>
</clipPath>
</defs>
</svg>
